<svg xmlns="http://www.w3.org/2000/svg" xmlns:xlink="http://www.w3.org/1999/xlink" width="45" zoomAndPan="magnify" viewBox="0 0 33.75 33.749998" height="45" preserveAspectRatio="xMidYMid meet" version="1.0"><defs><clipPath id="5c99bf77e6"><path d="M 8 6.546875 L 33.09375 6.546875 L 33.09375 27.394531 L 8 27.394531 Z M 8 6.546875 " clip-rule="nonzero"/></clipPath><clipPath id="19c8a410eb"><path d="M 32.386719 7.664062 C 31.917969 7.253906 31.25 7.101562 30.574219 7.242188 L 14.996094 10.476562 C 14.617188 10.554688 14.277344 10.722656 14.003906 10.949219 L 12.570312 8.328125 C 12.488281 8.175781 12.359375 8.058594 12.203125 7.996094 L 9.316406 6.742188 C 8.925781 6.574219 8.46875 6.742188 8.300781 7.125 C 8.128906 7.511719 8.300781 7.957031 8.691406 8.125 L 11.328125 9.273438 L 12.789062 11.9375 L 17.058594 19.574219 L 17.632812 20.621094 C 18.167969 21.554688 19.316406 22.171875 20.429688 22.171875 C 20.625 22.171875 20.808594 22.15625 21.003906 22.117188 L 24.660156 21.363281 C 24.660156 21.363281 28.484375 20.570312 29.945312 20.265625 C 30.3125 20.1875 30.414062 20.355469 30.441406 20.46875 C 30.46875 20.582031 30.453125 20.777344 30.078125 20.851562 L 22.335938 22.453125 C 20.765625 22.785156 19.894531 23.871094 19.957031 25.457031 C 19.957031 25.46875 19.957031 25.484375 19.957031 25.496094 C 19.945312 25.648438 19.945312 25.816406 19.984375 25.980469 C 20.167969 26.828125 20.988281 27.363281 21.839844 27.183594 C 22.671875 27.003906 23.210938 26.1875 23.027344 25.34375 C 22.910156 24.792969 22.503906 24.371094 22.007812 24.191406 C 22.175781 24.0625 22.398438 23.972656 22.671875 23.921875 L 28.078125 22.796875 C 27.542969 23.128906 27.242188 23.769531 27.386719 24.433594 C 27.570312 25.277344 28.390625 25.816406 29.226562 25.636719 C 30.0625 25.457031 30.597656 24.640625 30.414062 23.792969 C 30.273438 23.128906 29.738281 22.667969 29.097656 22.578125 L 30.375 22.3125 C 31.09375 22.15625 31.488281 21.773438 31.683594 21.464844 C 31.945312 21.070312 32.035156 20.597656 31.929688 20.125 C 31.746094 19.265625 30.859375 18.484375 29.605469 18.753906 C 29.320312 18.820312 28.925781 18.894531 28.507812 18.984375 L 20.675781 20.609375 C 20.128906 20.726562 19.398438 20.417969 19.058594 19.96875 C 19.136719 19.96875 19.214844 19.984375 19.292969 19.984375 C 19.488281 19.984375 19.671875 19.96875 19.867188 19.929688 L 30.050781 17.808594 C 31.304688 17.550781 32.386719 16.363281 32.503906 15.109375 L 33.039062 9.363281 C 33.09375 8.699219 32.855469 8.074219 32.386719 7.664062 Z M 25.3125 12.792969 L 22.074219 13.472656 L 21.472656 10.683594 L 24.710938 10.003906 Z M 22.398438 14.957031 L 25.636719 14.277344 L 26.238281 17.066406 L 23 17.742188 Z M 30.886719 8.726562 C 30.953125 8.710938 31.003906 8.699219 31.070312 8.699219 C 31.1875 8.699219 31.289062 8.726562 31.355469 8.789062 C 31.460938 8.878906 31.5 9.03125 31.488281 9.238281 L 31.277344 11.550781 L 26.839844 12.472656 L 26.238281 9.683594 Z M 14.917969 12.21875 C 14.972656 12.101562 15.113281 12.011719 15.324219 11.960938 L 19.957031 11.003906 L 20.558594 13.789062 L 16.144531 14.710938 L 14.984375 12.679688 C 14.878906 12.5 14.867188 12.332031 14.917969 12.21875 Z M 19.539062 18.460938 C 18.953125 18.574219 18.144531 18.230469 17.855469 17.707031 L 16.929688 16.082031 L 20.871094 15.261719 L 21.472656 18.050781 Z M 29.722656 16.335938 L 27.753906 16.746094 L 27.152344 13.957031 L 31.121094 13.125 L 30.953125 14.96875 C 30.898438 15.570312 30.3125 16.222656 29.722656 16.335938 Z M 29.722656 16.335938 " clip-rule="nonzero"/></clipPath><linearGradient x1="44.698681" gradientTransform="matrix(0.130559, 0, 0, 0.127926, 0.400299, 0.960017)" y1="140.48338" x2="261.171045" gradientUnits="userSpaceOnUse" y2="92.860548" id="4d8ad1018e"><stop stop-opacity="1" stop-color="rgb(94.898987%, 22.349548%, 10.198975%)" offset="0"/><stop stop-opacity="1" stop-color="rgb(94.898987%, 22.349548%, 10.198975%)" offset="0.125"/><stop stop-opacity="1" stop-color="rgb(94.898987%, 22.349548%, 10.198975%)" offset="0.157521"/><stop stop-opacity="1" stop-color="rgb(94.898987%, 22.349548%, 10.198975%)" offset="0.1875"/><stop stop-opacity="1" stop-color="rgb(94.898987%, 22.349548%, 10.198975%)" offset="0.21875"/><stop stop-opacity="1" stop-color="rgb(94.898987%, 22.349548%, 10.198975%)" offset="0.234375"/><stop stop-opacity="1" stop-color="rgb(94.926453%, 22.520447%, 10.150146%)" offset="0.242187"/><stop stop-opacity="1" stop-color="rgb(94.985962%, 22.900391%, 10.043335%)" offset="0.246094"/><stop stop-opacity="1" stop-color="rgb(95.019531%, 23.109436%, 9.985352%)" offset="0.25"/><stop stop-opacity="1" stop-color="rgb(95.053101%, 23.318481%, 9.925842%)" offset="0.253906"/><stop stop-opacity="1" stop-color="rgb(95.08667%, 23.529053%, 9.867859%)" offset="0.257812"/><stop stop-opacity="1" stop-color="rgb(95.118713%, 23.738098%, 9.80835%)" offset="0.261719"/><stop stop-opacity="1" stop-color="rgb(95.152283%, 23.947144%, 9.750366%)" offset="0.265625"/><stop stop-opacity="1" stop-color="rgb(95.185852%, 24.156189%, 9.690857%)" offset="0.269531"/><stop stop-opacity="1" stop-color="rgb(95.219421%, 24.36676%, 9.632874%)" offset="0.273438"/><stop stop-opacity="1" stop-color="rgb(95.251465%, 24.575806%, 9.573364%)" offset="0.277344"/><stop stop-opacity="1" stop-color="rgb(95.285034%, 24.784851%, 9.515381%)" offset="0.28125"/><stop stop-opacity="1" stop-color="rgb(95.318604%, 24.993896%, 9.455872%)" offset="0.285156"/><stop stop-opacity="1" stop-color="rgb(95.352173%, 25.204468%, 9.397888%)" offset="0.289062"/><stop stop-opacity="1" stop-color="rgb(95.384216%, 25.413513%, 9.338379%)" offset="0.292969"/><stop stop-opacity="1" stop-color="rgb(95.417786%, 25.622559%, 9.280396%)" offset="0.296875"/><stop stop-opacity="1" stop-color="rgb(95.451355%, 25.831604%, 9.222412%)" offset="0.300781"/><stop stop-opacity="1" stop-color="rgb(95.484924%, 26.042175%, 9.164429%)" offset="0.304687"/><stop stop-opacity="1" stop-color="rgb(95.516968%, 26.251221%, 9.104919%)" offset="0.308594"/><stop stop-opacity="1" stop-color="rgb(95.550537%, 26.460266%, 9.046936%)" offset="0.3125"/><stop stop-opacity="1" stop-color="rgb(95.584106%, 26.669312%, 8.987427%)" offset="0.316406"/><stop stop-opacity="1" stop-color="rgb(95.617676%, 26.879883%, 8.929443%)" offset="0.320312"/><stop stop-opacity="1" stop-color="rgb(95.649719%, 27.088928%, 8.869934%)" offset="0.324219"/><stop stop-opacity="1" stop-color="rgb(95.683289%, 27.297974%, 8.811951%)" offset="0.328125"/><stop stop-opacity="1" stop-color="rgb(95.716858%, 27.507019%, 8.752441%)" offset="0.332031"/><stop stop-opacity="1" stop-color="rgb(95.750427%, 27.71759%, 8.694458%)" offset="0.335937"/><stop stop-opacity="1" stop-color="rgb(95.783997%, 27.926636%, 8.634949%)" offset="0.339844"/><stop stop-opacity="1" stop-color="rgb(95.817566%, 28.135681%, 8.576965%)" offset="0.34375"/><stop stop-opacity="1" stop-color="rgb(95.849609%, 28.344727%, 8.517456%)" offset="0.347656"/><stop stop-opacity="1" stop-color="rgb(95.883179%, 28.555298%, 8.459473%)" offset="0.351562"/><stop stop-opacity="1" stop-color="rgb(95.916748%, 28.764343%, 8.399963%)" offset="0.355469"/><stop stop-opacity="1" stop-color="rgb(95.950317%, 28.973389%, 8.34198%)" offset="0.359375"/><stop stop-opacity="1" stop-color="rgb(95.982361%, 29.182434%, 8.282471%)" offset="0.363281"/><stop stop-opacity="1" stop-color="rgb(96.01593%, 29.391479%, 8.224487%)" offset="0.367187"/><stop stop-opacity="1" stop-color="rgb(96.0495%, 29.600525%, 8.164978%)" offset="0.371094"/><stop stop-opacity="1" stop-color="rgb(96.083069%, 29.811096%, 8.106995%)" offset="0.375"/><stop stop-opacity="1" stop-color="rgb(96.115112%, 30.020142%, 8.047485%)" offset="0.378906"/><stop stop-opacity="1" stop-color="rgb(96.148682%, 30.229187%, 7.989502%)" offset="0.382812"/><stop stop-opacity="1" stop-color="rgb(96.182251%, 30.438232%, 7.929993%)" offset="0.386719"/><stop stop-opacity="1" stop-color="rgb(96.21582%, 30.648804%, 7.872009%)" offset="0.390625"/><stop stop-opacity="1" stop-color="rgb(96.247864%, 30.857849%, 7.8125%)" offset="0.394531"/><stop stop-opacity="1" stop-color="rgb(96.281433%, 31.066895%, 7.754517%)" offset="0.398437"/><stop stop-opacity="1" stop-color="rgb(96.315002%, 31.27594%, 7.695007%)" offset="0.402344"/><stop stop-opacity="1" stop-color="rgb(96.348572%, 31.486511%, 7.637024%)" offset="0.40625"/><stop stop-opacity="1" stop-color="rgb(96.380615%, 31.695557%, 7.577515%)" offset="0.410156"/><stop stop-opacity="1" stop-color="rgb(96.414185%, 31.904602%, 7.519531%)" offset="0.414062"/><stop stop-opacity="1" stop-color="rgb(96.447754%, 32.113647%, 7.460022%)" offset="0.417969"/><stop stop-opacity="1" stop-color="rgb(96.481323%, 32.324219%, 7.402039%)" offset="0.421875"/><stop stop-opacity="1" stop-color="rgb(96.513367%, 32.533264%, 7.342529%)" offset="0.425781"/><stop stop-opacity="1" stop-color="rgb(96.546936%, 32.74231%, 7.284546%)" offset="0.429688"/><stop stop-opacity="1" stop-color="rgb(96.580505%, 32.951355%, 7.225037%)" offset="0.433594"/><stop stop-opacity="1" stop-color="rgb(96.614075%, 33.161926%, 7.167053%)" offset="0.4375"/><stop stop-opacity="1" stop-color="rgb(96.646118%, 33.370972%, 7.107544%)" offset="0.441406"/><stop stop-opacity="1" stop-color="rgb(96.679688%, 33.580017%, 7.049561%)" offset="0.445312"/><stop stop-opacity="1" stop-color="rgb(96.713257%, 33.789062%, 6.990051%)" offset="0.449219"/><stop stop-opacity="1" stop-color="rgb(96.746826%, 33.999634%, 6.932068%)" offset="0.453125"/><stop stop-opacity="1" stop-color="rgb(96.77887%, 34.208679%, 6.872559%)" offset="0.457031"/><stop stop-opacity="1" stop-color="rgb(96.812439%, 34.417725%, 6.814575%)" offset="0.460937"/><stop stop-opacity="1" stop-color="rgb(96.846008%, 34.62677%, 6.755066%)" offset="0.464844"/><stop stop-opacity="1" stop-color="rgb(96.879578%, 34.837341%, 6.697083%)" offset="0.46875"/><stop stop-opacity="1" stop-color="rgb(96.913147%, 35.046387%, 6.637573%)" offset="0.472656"/><stop stop-opacity="1" stop-color="rgb(96.946716%, 35.255432%, 6.57959%)" offset="0.476562"/><stop stop-opacity="1" stop-color="rgb(96.97876%, 35.464478%, 6.520081%)" offset="0.480469"/><stop stop-opacity="1" stop-color="rgb(97.012329%, 35.675049%, 6.462097%)" offset="0.484375"/><stop stop-opacity="1" stop-color="rgb(97.045898%, 35.884094%, 6.402588%)" offset="0.488281"/><stop stop-opacity="1" stop-color="rgb(97.079468%, 36.09314%, 6.344604%)" offset="0.492188"/><stop stop-opacity="1" stop-color="rgb(97.111511%, 36.302185%, 6.285095%)" offset="0.496094"/><stop stop-opacity="1" stop-color="rgb(97.145081%, 36.512756%, 6.227112%)" offset="0.5"/><stop stop-opacity="1" stop-color="rgb(97.17865%, 36.721802%, 6.167603%)" offset="0.503906"/><stop stop-opacity="1" stop-color="rgb(97.212219%, 36.930847%, 6.109619%)" offset="0.507812"/><stop stop-opacity="1" stop-color="rgb(97.244263%, 37.139893%, 6.05011%)" offset="0.511719"/><stop stop-opacity="1" stop-color="rgb(97.277832%, 37.350464%, 5.992126%)" offset="0.515625"/><stop stop-opacity="1" stop-color="rgb(97.311401%, 37.559509%, 5.932617%)" offset="0.519531"/><stop stop-opacity="1" stop-color="rgb(97.344971%, 37.768555%, 5.874634%)" offset="0.523438"/><stop stop-opacity="1" stop-color="rgb(97.377014%, 37.9776%, 5.815125%)" offset="0.527344"/><stop stop-opacity="1" stop-color="rgb(97.410583%, 38.188171%, 5.757141%)" offset="0.53125"/><stop stop-opacity="1" stop-color="rgb(97.444153%, 38.397217%, 5.697632%)" offset="0.535156"/><stop stop-opacity="1" stop-color="rgb(97.477722%, 38.606262%, 5.639648%)" offset="0.539062"/><stop stop-opacity="1" stop-color="rgb(97.509766%, 38.815308%, 5.580139%)" offset="0.542969"/><stop stop-opacity="1" stop-color="rgb(97.543335%, 39.025879%, 5.522156%)" offset="0.546875"/><stop stop-opacity="1" stop-color="rgb(97.576904%, 39.234924%, 5.462646%)" offset="0.550781"/><stop stop-opacity="1" stop-color="rgb(97.610474%, 39.44397%, 5.404663%)" offset="0.554688"/><stop stop-opacity="1" stop-color="rgb(97.642517%, 39.653015%, 5.345154%)" offset="0.558594"/><stop stop-opacity="1" stop-color="rgb(97.676086%, 39.863586%, 5.28717%)" offset="0.5625"/><stop stop-opacity="1" stop-color="rgb(97.709656%, 40.072632%, 5.227661%)" offset="0.566406"/><stop stop-opacity="1" stop-color="rgb(97.743225%, 40.281677%, 5.169678%)" offset="0.570312"/><stop stop-opacity="1" stop-color="rgb(97.775269%, 40.490723%, 5.110168%)" offset="0.574219"/><stop stop-opacity="1" stop-color="rgb(97.808838%, 40.701294%, 5.052185%)" offset="0.578125"/><stop stop-opacity="1" stop-color="rgb(97.842407%, 40.910339%, 4.992676%)" offset="0.582031"/><stop stop-opacity="1" stop-color="rgb(97.875977%, 41.119385%, 4.934692%)" offset="0.585938"/><stop stop-opacity="1" stop-color="rgb(97.909546%, 41.32843%, 4.875183%)" offset="0.589844"/><stop stop-opacity="1" stop-color="rgb(97.943115%, 41.539001%, 4.8172%)" offset="0.59375"/><stop stop-opacity="1" stop-color="rgb(97.975159%, 41.748047%, 4.75769%)" offset="0.597656"/><stop stop-opacity="1" stop-color="rgb(98.008728%, 41.957092%, 4.699707%)" offset="0.601562"/><stop stop-opacity="1" stop-color="rgb(98.042297%, 42.166138%, 4.640198%)" offset="0.605469"/><stop stop-opacity="1" stop-color="rgb(98.075867%, 42.376709%, 4.582214%)" offset="0.609375"/><stop stop-opacity="1" stop-color="rgb(98.10791%, 42.585754%, 4.522705%)" offset="0.613281"/><stop stop-opacity="1" stop-color="rgb(98.141479%, 42.7948%, 4.464722%)" offset="0.617188"/><stop stop-opacity="1" stop-color="rgb(98.175049%, 43.003845%, 4.405212%)" offset="0.621094"/><stop stop-opacity="1" stop-color="rgb(98.208618%, 43.214417%, 4.347229%)" offset="0.625"/><stop stop-opacity="1" stop-color="rgb(98.240662%, 43.423462%, 4.28772%)" offset="0.628906"/><stop stop-opacity="1" stop-color="rgb(98.274231%, 43.632507%, 4.229736%)" offset="0.632812"/><stop stop-opacity="1" stop-color="rgb(98.3078%, 43.841553%, 4.170227%)" offset="0.636719"/><stop stop-opacity="1" stop-color="rgb(98.34137%, 44.052124%, 4.112244%)" offset="0.640625"/><stop stop-opacity="1" stop-color="rgb(98.373413%, 44.261169%, 4.052734%)" offset="0.644531"/><stop stop-opacity="1" stop-color="rgb(98.406982%, 44.470215%, 3.994751%)" offset="0.648438"/><stop stop-opacity="1" stop-color="rgb(98.440552%, 44.67926%, 3.935242%)" offset="0.652344"/><stop stop-opacity="1" stop-color="rgb(98.474121%, 44.889832%, 3.877258%)" offset="0.65625"/><stop stop-opacity="1" stop-color="rgb(98.506165%, 45.098877%, 3.817749%)" offset="0.660156"/><stop stop-opacity="1" stop-color="rgb(98.539734%, 45.307922%, 3.759766%)" offset="0.664062"/><stop stop-opacity="1" stop-color="rgb(98.573303%, 45.516968%, 3.700256%)" offset="0.667969"/><stop stop-opacity="1" stop-color="rgb(98.606873%, 45.727539%, 3.642273%)" offset="0.671875"/><stop stop-opacity="1" stop-color="rgb(98.638916%, 45.936584%, 3.582764%)" offset="0.675781"/><stop stop-opacity="1" stop-color="rgb(98.672485%, 46.14563%, 3.52478%)" offset="0.679688"/><stop stop-opacity="1" stop-color="rgb(98.706055%, 46.354675%, 3.465271%)" offset="0.683594"/><stop stop-opacity="1" stop-color="rgb(98.739624%, 46.565247%, 3.407288%)" offset="0.6875"/><stop stop-opacity="1" stop-color="rgb(98.771667%, 46.774292%, 3.347778%)" offset="0.691406"/><stop stop-opacity="1" stop-color="rgb(98.805237%, 46.983337%, 3.289795%)" offset="0.695312"/><stop stop-opacity="1" stop-color="rgb(98.838806%, 47.192383%, 3.230286%)" offset="0.699219"/><stop stop-opacity="1" stop-color="rgb(98.872375%, 47.402954%, 3.172302%)" offset="0.703125"/><stop stop-opacity="1" stop-color="rgb(98.904419%, 47.612%, 3.112793%)" offset="0.707031"/><stop stop-opacity="1" stop-color="rgb(98.937988%, 47.821045%, 3.05481%)" offset="0.710938"/><stop stop-opacity="1" stop-color="rgb(98.971558%, 48.03009%, 2.9953%)" offset="0.714844"/><stop stop-opacity="1" stop-color="rgb(99.005127%, 48.240662%, 2.937317%)" offset="0.71875"/><stop stop-opacity="1" stop-color="rgb(99.038696%, 48.449707%, 2.877808%)" offset="0.722656"/><stop stop-opacity="1" stop-color="rgb(99.072266%, 48.658752%, 2.819824%)" offset="0.726562"/><stop stop-opacity="1" stop-color="rgb(99.104309%, 48.867798%, 2.760315%)" offset="0.730469"/><stop stop-opacity="1" stop-color="rgb(99.137878%, 49.078369%, 2.702332%)" offset="0.734375"/><stop stop-opacity="1" stop-color="rgb(99.171448%, 49.287415%, 2.642822%)" offset="0.738281"/><stop stop-opacity="1" stop-color="rgb(99.205017%, 49.49646%, 2.584839%)" offset="0.742188"/><stop stop-opacity="1" stop-color="rgb(99.237061%, 49.705505%, 2.52533%)" offset="0.746094"/><stop stop-opacity="1" stop-color="rgb(99.27063%, 49.916077%, 2.467346%)" offset="0.75"/><stop stop-opacity="1" stop-color="rgb(99.304199%, 50.125122%, 2.407837%)" offset="0.753906"/><stop stop-opacity="1" stop-color="rgb(99.337769%, 50.334167%, 2.349854%)" offset="0.757812"/><stop stop-opacity="1" stop-color="rgb(99.369812%, 50.543213%, 2.290344%)" offset="0.761719"/><stop stop-opacity="1" stop-color="rgb(99.403381%, 50.753784%, 2.232361%)" offset="0.765625"/><stop stop-opacity="1" stop-color="rgb(99.436951%, 50.96283%, 2.172852%)" offset="0.769531"/><stop stop-opacity="1" stop-color="rgb(99.47052%, 51.171875%, 2.114868%)" offset="0.773438"/><stop stop-opacity="1" stop-color="rgb(99.502563%, 51.38092%, 2.055359%)" offset="0.777344"/><stop stop-opacity="1" stop-color="rgb(99.536133%, 51.591492%, 1.997375%)" offset="0.78125"/><stop stop-opacity="1" stop-color="rgb(99.569702%, 51.800537%, 1.937866%)" offset="0.785156"/><stop stop-opacity="1" stop-color="rgb(99.603271%, 52.009583%, 1.879883%)" offset="0.789062"/><stop stop-opacity="1" stop-color="rgb(99.635315%, 52.218628%, 1.820374%)" offset="0.792969"/><stop stop-opacity="1" stop-color="rgb(99.668884%, 52.429199%, 1.76239%)" offset="0.796875"/><stop stop-opacity="1" stop-color="rgb(99.702454%, 52.638245%, 1.702881%)" offset="0.800781"/><stop stop-opacity="1" stop-color="rgb(99.736023%, 52.84729%, 1.644897%)" offset="0.804688"/><stop stop-opacity="1" stop-color="rgb(99.768066%, 53.056335%, 1.585388%)" offset="0.808594"/><stop stop-opacity="1" stop-color="rgb(99.801636%, 53.266907%, 1.527405%)" offset="0.8125"/><stop stop-opacity="1" stop-color="rgb(99.835205%, 53.475952%, 1.467896%)" offset="0.816406"/><stop stop-opacity="1" stop-color="rgb(99.868774%, 53.684998%, 1.409912%)" offset="0.820312"/><stop stop-opacity="1" stop-color="rgb(99.900818%, 53.894043%, 1.350403%)" offset="0.824219"/><stop stop-opacity="1" stop-color="rgb(99.934387%, 54.104614%, 1.292419%)" offset="0.828125"/><stop stop-opacity="1" stop-color="rgb(99.966431%, 54.30603%, 1.235962%)" offset="0.832031"/><stop stop-opacity="1" stop-color="rgb(100%, 54.508972%, 1.179504%)" offset="0.835938"/><stop stop-opacity="1" stop-color="rgb(100%, 54.508972%, 1.179504%)" offset="0.842479"/><stop stop-opacity="1" stop-color="rgb(100%, 54.508972%, 1.179504%)" offset="0.84375"/><stop stop-opacity="1" stop-color="rgb(100%, 54.508972%, 1.179504%)" offset="0.875"/><stop stop-opacity="1" stop-color="rgb(100%, 54.508972%, 1.179504%)" offset="1"/></linearGradient><clipPath id="28c07f7d05"><path d="M 0.335938 11 L 16 11 L 16 23 L 0.335938 23 Z M 0.335938 11 " clip-rule="nonzero"/></clipPath><clipPath id="a1f19e7e45"><path d="M 1.328125 14.648438 C 1.234375 14.238281 1.511719 13.828125 1.929688 13.753906 L 10.570312 11.949219 C 10.988281 11.859375 11.40625 12.128906 11.484375 12.539062 C 11.578125 12.945312 11.300781 13.355469 10.882812 13.433594 L 2.242188 15.238281 C 2.1875 15.25 2.136719 15.25 2.085938 15.25 C 1.71875 15.25 1.40625 15.007812 1.328125 14.648438 Z M 6.5625 16.492188 C 6.640625 16.847656 6.96875 17.089844 7.320312 17.089844 C 7.371094 17.089844 7.425781 17.089844 7.476562 17.078125 L 12.28125 16.082031 C 12.699219 15.992188 12.972656 15.59375 12.882812 15.183594 C 12.789062 14.777344 12.386719 14.507812 11.96875 14.597656 L 7.164062 15.59375 C 6.746094 15.671875 6.472656 16.082031 6.5625 16.492188 Z M 4.96875 16.824219 C 4.878906 16.414062 4.472656 16.144531 4.054688 16.234375 L 1.027344 16.859375 C 0.609375 16.949219 0.335938 17.347656 0.425781 17.757812 C 0.503906 18.113281 0.832031 18.359375 1.183594 18.359375 C 1.234375 18.359375 1.289062 18.359375 1.339844 18.34375 L 4.371094 17.71875 C 4.785156 17.628906 5.046875 17.230469 4.96875 16.824219 Z M 14.355469 17.78125 C 14.265625 17.371094 13.859375 17.105469 13.441406 17.195312 L 4.785156 18.996094 C 4.371094 19.085938 4.09375 19.484375 4.1875 19.894531 C 4.265625 20.25 4.589844 20.496094 4.945312 20.496094 C 4.996094 20.496094 5.046875 20.496094 5.101562 20.480469 L 13.742188 18.679688 C 14.175781 18.601562 14.449219 18.191406 14.355469 17.78125 Z M 14.8125 19.84375 L 9.292969 20.992188 C 8.875 21.082031 8.597656 21.480469 8.691406 21.890625 C 8.769531 22.246094 9.09375 22.488281 9.449219 22.488281 C 9.5 22.488281 9.550781 22.488281 9.605469 22.476562 L 15.128906 21.324219 C 15.546875 21.234375 15.820312 20.839844 15.726562 20.429688 C 15.648438 20.019531 15.230469 19.753906 14.8125 19.84375 Z M 14.8125 19.84375 " clip-rule="nonzero"/></clipPath><linearGradient x1="124.790604" gradientTransform="matrix(0.130559, 0, 0, 0.127926, 0.400299, 0.960017)" y1="116.03492" x2="-5.697067" gradientUnits="userSpaceOnUse" y2="144.348298" id="53f0172ab4"><stop stop-opacity="1" stop-color="rgb(100%, 53.363037%, 0%)" offset="0"/><stop stop-opacity="1" stop-color="rgb(100%, 53.511047%, 0%)" offset="0.015625"/><stop stop-opacity="1" stop-color="rgb(100%, 53.807068%, 0%)" offset="0.03125"/><stop stop-opacity="1" stop-color="rgb(100%, 54.103088%, 0%)" offset="0.046875"/><stop stop-opacity="1" stop-color="rgb(100%, 54.399109%, 0%)" offset="0.0625"/><stop stop-opacity="1" stop-color="rgb(100%, 54.695129%, 0%)" offset="0.078125"/><stop stop-opacity="1" stop-color="rgb(100%, 54.99115%, 0%)" offset="0.09375"/><stop stop-opacity="1" stop-color="rgb(100%, 55.28717%, 0%)" offset="0.109375"/><stop stop-opacity="1" stop-color="rgb(100%, 55.583191%, 0%)" offset="0.125"/><stop stop-opacity="1" stop-color="rgb(100%, 55.879211%, 0%)" offset="0.131969"/><stop stop-opacity="1" stop-color="rgb(100%, 56.027222%, 0%)" offset="0.140625"/><stop stop-opacity="1" stop-color="rgb(100%, 56.175232%, 0%)" offset="0.15625"/><stop stop-opacity="1" stop-color="rgb(100%, 56.471252%, 0%)" offset="0.171875"/><stop stop-opacity="1" stop-color="rgb(100%, 56.767273%, 0%)" offset="0.1875"/><stop stop-opacity="1" stop-color="rgb(100%, 57.063293%, 0%)" offset="0.203125"/><stop stop-opacity="1" stop-color="rgb(100%, 57.359314%, 0%)" offset="0.21875"/><stop stop-opacity="1" stop-color="rgb(100%, 57.655334%, 0%)" offset="0.234375"/><stop stop-opacity="1" stop-color="rgb(100%, 57.951355%, 0%)" offset="0.25"/><stop stop-opacity="1" stop-color="rgb(100%, 58.247375%, 0%)" offset="0.265625"/><stop stop-opacity="1" stop-color="rgb(100%, 58.543396%, 0%)" offset="0.28125"/><stop stop-opacity="1" stop-color="rgb(100%, 58.839417%, 0%)" offset="0.296875"/><stop stop-opacity="1" stop-color="rgb(100%, 59.136963%, 0%)" offset="0.3125"/><stop stop-opacity="1" stop-color="rgb(100%, 59.432983%, 0%)" offset="0.328125"/><stop stop-opacity="1" stop-color="rgb(100%, 59.729004%, 0%)" offset="0.34375"/><stop stop-opacity="1" stop-color="rgb(100%, 60.025024%, 0%)" offset="0.359375"/><stop stop-opacity="1" stop-color="rgb(100%, 60.321045%, 0%)" offset="0.375"/><stop stop-opacity="1" stop-color="rgb(100%, 60.617065%, 0%)" offset="0.390625"/><stop stop-opacity="1" stop-color="rgb(100%, 60.913086%, 0%)" offset="0.40625"/><stop stop-opacity="1" stop-color="rgb(100%, 61.209106%, 0%)" offset="0.421875"/><stop stop-opacity="1" stop-color="rgb(100%, 61.505127%, 0%)" offset="0.4375"/><stop stop-opacity="1" stop-color="rgb(100%, 61.801147%, 0%)" offset="0.453125"/><stop stop-opacity="1" stop-color="rgb(100%, 62.097168%, 0%)" offset="0.46875"/><stop stop-opacity="1" stop-color="rgb(100%, 62.393188%, 0%)" offset="0.484375"/><stop stop-opacity="1" stop-color="rgb(100%, 62.689209%, 0%)" offset="0.5"/><stop stop-opacity="1" stop-color="rgb(100%, 62.985229%, 0%)" offset="0.515625"/><stop stop-opacity="1" stop-color="rgb(100%, 63.28125%, 0%)" offset="0.53125"/><stop stop-opacity="1" stop-color="rgb(100%, 63.577271%, 0%)" offset="0.546875"/><stop stop-opacity="1" stop-color="rgb(100%, 63.873291%, 0%)" offset="0.5625"/><stop stop-opacity="1" stop-color="rgb(100%, 64.169312%, 0%)" offset="0.578125"/><stop stop-opacity="1" stop-color="rgb(100%, 64.465332%, 0%)" offset="0.59375"/><stop stop-opacity="1" stop-color="rgb(100%, 64.761353%, 0%)" offset="0.609375"/><stop stop-opacity="1" stop-color="rgb(100%, 65.057373%, 0%)" offset="0.625"/><stop stop-opacity="1" stop-color="rgb(100%, 65.353394%, 0%)" offset="0.640625"/><stop stop-opacity="1" stop-color="rgb(100%, 65.649414%, 0%)" offset="0.65625"/><stop stop-opacity="1" stop-color="rgb(100%, 65.945435%, 0%)" offset="0.671875"/><stop stop-opacity="1" stop-color="rgb(100%, 66.241455%, 0%)" offset="0.6875"/><stop stop-opacity="1" stop-color="rgb(100%, 66.537476%, 0%)" offset="0.703125"/><stop stop-opacity="1" stop-color="rgb(100%, 66.833496%, 0%)" offset="0.71875"/><stop stop-opacity="1" stop-color="rgb(100%, 67.129517%, 0%)" offset="0.734375"/><stop stop-opacity="1" stop-color="rgb(100%, 67.425537%, 0%)" offset="0.75"/><stop stop-opacity="1" stop-color="rgb(100%, 67.721558%, 0%)" offset="0.765625"/><stop stop-opacity="1" stop-color="rgb(100%, 68.017578%, 0%)" offset="0.78125"/><stop stop-opacity="1" stop-color="rgb(100%, 68.313599%, 0%)" offset="0.796875"/><stop stop-opacity="1" stop-color="rgb(100%, 68.609619%, 0%)" offset="0.8125"/><stop stop-opacity="1" stop-color="rgb(100%, 68.90564%, 0%)" offset="0.828125"/><stop stop-opacity="1" stop-color="rgb(100%, 69.20166%, 0%)" offset="0.84375"/><stop stop-opacity="1" stop-color="rgb(100%, 69.497681%, 0%)" offset="0.859375"/><stop stop-opacity="1" stop-color="rgb(100%, 69.793701%, 0%)" offset="0.868031"/><stop stop-opacity="1" stop-color="rgb(100%, 69.941711%, 0%)" offset="0.875"/><stop stop-opacity="1" stop-color="rgb(100%, 70.089722%, 0%)" offset="0.890625"/><stop stop-opacity="1" stop-color="rgb(100%, 70.385742%, 0%)" offset="0.90625"/><stop stop-opacity="1" stop-color="rgb(100%, 70.681763%, 0%)" offset="0.921875"/><stop stop-opacity="1" stop-color="rgb(100%, 70.977783%, 0%)" offset="0.9375"/><stop stop-opacity="1" stop-color="rgb(100%, 71.273804%, 0%)" offset="0.953125"/><stop stop-opacity="1" stop-color="rgb(100%, 71.569824%, 0%)" offset="0.96875"/><stop stop-opacity="1" stop-color="rgb(100%, 71.865845%, 0%)" offset="0.984375"/><stop stop-opacity="1" stop-color="rgb(100%, 72.161865%, 0%)" offset="1"/></linearGradient><clipPath id="2f52422252"><path d="M 8 6.546875 L 33.09375 6.546875 L 33.09375 27.394531 L 8 27.394531 Z M 8 6.546875 " clip-rule="nonzero"/></clipPath><clipPath id="d219ce7fad"><path d="M 32.386719 7.664062 C 31.917969 7.253906 31.25 7.101562 30.574219 7.242188 L 14.996094 10.476562 C 14.617188 10.554688 14.277344 10.722656 14.003906 10.949219 L 12.570312 8.328125 C 12.488281 8.175781 12.359375 8.058594 12.203125 7.996094 L 9.316406 6.742188 C 8.925781 6.574219 8.46875 6.742188 8.300781 7.125 C 8.128906 7.511719 8.300781 7.957031 8.691406 8.125 L 11.328125 9.273438 L 12.789062 11.9375 L 17.058594 19.574219 L 17.632812 20.621094 C 18.167969 21.554688 19.316406 22.171875 20.429688 22.171875 C 20.625 22.171875 20.808594 22.15625 21.003906 22.117188 L 24.660156 21.363281 C 24.660156 21.363281 28.484375 20.570312 29.945312 20.265625 C 30.3125 20.1875 30.414062 20.355469 30.441406 20.46875 C 30.46875 20.582031 30.453125 20.777344 30.078125 20.851562 L 22.335938 22.453125 C 20.765625 22.785156 19.894531 23.871094 19.957031 25.457031 C 19.957031 25.46875 19.957031 25.484375 19.957031 25.496094 C 19.945312 25.648438 19.945312 25.816406 19.984375 25.980469 C 20.167969 26.828125 20.988281 27.363281 21.839844 27.183594 C 22.671875 27.003906 23.210938 26.1875 23.027344 25.34375 C 22.910156 24.792969 22.503906 24.371094 22.007812 24.191406 C 22.175781 24.0625 22.398438 23.972656 22.671875 23.921875 L 28.078125 22.796875 C 27.542969 23.128906 27.242188 23.769531 27.386719 24.433594 C 27.570312 25.277344 28.390625 25.816406 29.226562 25.636719 C 30.0625 25.457031 30.597656 24.640625 30.414062 23.792969 C 30.273438 23.128906 29.738281 22.667969 29.097656 22.578125 L 30.375 22.3125 C 31.09375 22.15625 31.488281 21.773438 31.683594 21.464844 C 31.945312 21.070312 32.035156 20.597656 31.929688 20.125 C 31.746094 19.265625 30.859375 18.484375 29.605469 18.753906 C 29.320312 18.820312 28.925781 18.894531 28.507812 18.984375 L 20.675781 20.609375 C 20.128906 20.726562 19.398438 20.417969 19.058594 19.96875 C 19.136719 19.96875 19.214844 19.984375 19.292969 19.984375 C 19.488281 19.984375 19.671875 19.96875 19.867188 19.929688 L 30.050781 17.808594 C 31.304688 17.550781 32.386719 16.363281 32.503906 15.109375 L 33.039062 9.363281 C 33.09375 8.699219 32.855469 8.074219 32.386719 7.664062 Z M 25.3125 12.792969 L 22.074219 13.472656 L 21.472656 10.683594 L 24.710938 10.003906 Z M 22.398438 14.957031 L 25.636719 14.277344 L 26.238281 17.066406 L 23 17.742188 Z M 30.886719 8.726562 C 30.953125 8.710938 31.003906 8.699219 31.070312 8.699219 C 31.1875 8.699219 31.289062 8.726562 31.355469 8.789062 C 31.460938 8.878906 31.5 9.03125 31.488281 9.238281 L 31.277344 11.550781 L 26.839844 12.472656 L 26.238281 9.683594 Z M 14.917969 12.21875 C 14.972656 12.101562 15.113281 12.011719 15.324219 11.960938 L 19.957031 11.003906 L 20.558594 13.789062 L 16.144531 14.710938 L 14.984375 12.679688 C 14.878906 12.5 14.867188 12.332031 14.917969 12.21875 Z M 19.539062 18.460938 C 18.953125 18.574219 18.144531 18.230469 17.855469 17.707031 L 16.929688 16.082031 L 20.871094 15.261719 L 21.472656 18.050781 Z M 29.722656 16.335938 L 27.753906 16.746094 L 27.152344 13.957031 L 31.121094 13.125 L 30.953125 14.96875 C 30.898438 15.570312 30.3125 16.222656 29.722656 16.335938 Z M 29.722656 16.335938 " clip-rule="nonzero"/></clipPath><clipPath id="f1c2de1f8a"><path d="M 0.335938 11 L 16 11 L 16 23 L 0.335938 23 Z M 0.335938 11 " clip-rule="nonzero"/></clipPath><clipPath id="e440e9145c"><path d="M 1.328125 14.648438 C 1.234375 14.238281 1.511719 13.828125 1.929688 13.753906 L 10.570312 11.949219 C 10.988281 11.859375 11.40625 12.128906 11.484375 12.539062 C 11.578125 12.945312 11.300781 13.355469 10.882812 13.433594 L 2.242188 15.238281 C 2.1875 15.25 2.136719 15.25 2.085938 15.25 C 1.71875 15.25 1.40625 15.007812 1.328125 14.648438 Z M 6.5625 16.492188 C 6.640625 16.847656 6.96875 17.089844 7.320312 17.089844 C 7.371094 17.089844 7.425781 17.089844 7.476562 17.078125 L 12.28125 16.082031 C 12.699219 15.992188 12.972656 15.59375 12.882812 15.183594 C 12.789062 14.777344 12.386719 14.507812 11.96875 14.597656 L 7.164062 15.59375 C 6.746094 15.671875 6.472656 16.082031 6.5625 16.492188 Z M 4.96875 16.824219 C 4.878906 16.414062 4.472656 16.144531 4.054688 16.234375 L 1.027344 16.859375 C 0.609375 16.949219 0.335938 17.347656 0.425781 17.757812 C 0.503906 18.113281 0.832031 18.359375 1.183594 18.359375 C 1.234375 18.359375 1.289062 18.359375 1.339844 18.34375 L 4.371094 17.71875 C 4.785156 17.628906 5.046875 17.230469 4.96875 16.824219 Z M 14.355469 17.78125 C 14.265625 17.371094 13.859375 17.105469 13.441406 17.195312 L 4.785156 18.996094 C 4.371094 19.085938 4.09375 19.484375 4.1875 19.894531 C 4.265625 20.25 4.589844 20.496094 4.945312 20.496094 C 4.996094 20.496094 5.046875 20.496094 5.101562 20.480469 L 13.742188 18.679688 C 14.175781 18.601562 14.449219 18.191406 14.355469 17.78125 Z M 14.8125 19.84375 L 9.292969 20.992188 C 8.875 21.082031 8.597656 21.480469 8.691406 21.890625 C 8.769531 22.246094 9.09375 22.488281 9.449219 22.488281 C 9.5 22.488281 9.550781 22.488281 9.605469 22.476562 L 15.128906 21.324219 C 15.546875 21.234375 15.820312 20.839844 15.726562 20.429688 C 15.648438 20.019531 15.230469 19.753906 14.8125 19.84375 Z M 14.8125 19.84375 " clip-rule="nonzero"/></clipPath></defs><g clip-path="url(#5c99bf77e6)"><g clip-path="url(#19c8a410eb)"><path fill="url(#4d8ad1018e)" d="M 8.128906 6.574219 L 8.128906 27.363281 L 33.09375 27.363281 L 33.09375 6.574219 Z M 8.128906 6.574219 " fill-rule="nonzero"/></g></g><g clip-path="url(#28c07f7d05)"><g clip-path="url(#a1f19e7e45)"><path fill="url(#53f0172ab4)" d="M 0.335938 11.859375 L 0.335938 22.488281 L 15.820312 22.488281 L 15.820312 11.859375 Z M 0.335938 11.859375 " fill-rule="nonzero"/></g></g><g clip-path="url(#2f52422252)"><g clip-path="url(#d219ce7fad)"><path fill="url(#4d8ad1018e)" d="M 8.128906 6.574219 L 8.128906 27.363281 L 33.09375 27.363281 L 33.09375 6.574219 Z M 8.128906 6.574219 " fill-rule="nonzero"/></g></g><g clip-path="url(#f1c2de1f8a)"><g clip-path="url(#e440e9145c)"><path fill="url(#53f0172ab4)" d="M 0.335938 11.859375 L 0.335938 22.488281 L 15.820312 22.488281 L 15.820312 11.859375 Z M 0.335938 11.859375 " fill-rule="nonzero"/></g></g></svg>